<svg width="24" height="24" viewBox="0 0 24 24" fill="none" xmlns="http://www.w3.org/2000/svg">
<path fill-rule="evenodd" clip-rule="evenodd" d="M11.5922 9.16767C10.9362 9.16767 9.91416 8.40367 8.85216 8.40367C7.44016 8.40367 6.14816 9.26667 5.42016 10.5327C3.95616 13.0747 5.04316 16.8307 6.47116 18.8967C7.17216 19.9027 7.99816 21.0347 9.09416 20.9987C10.1452 20.9537 10.5402 20.3157 11.8162 20.3157C13.0832 20.3157 13.4422 20.9987 14.5562 20.9717C15.6882 20.9537 16.4072 19.9477 17.0982 18.9327C17.8982 17.7647 18.2302 16.6327 18.2482 16.5697C18.2212 16.5607 16.0472 15.7257 16.0202 13.2097C16.0022 11.1077 17.7362 10.1017 17.8172 10.0567C16.8292 8.61067 15.3112 8.44867 14.7812 8.41267C13.3972 8.30467 12.2392 9.16767 11.5922 9.16767V9.16767Z" stroke="#333333" stroke-width="1.5" stroke-linecap="round" stroke-linejoin="round"/>
<path d="M13.65 2.95494C14.519 2.63142 15.0874 3.10842 14.9196 4.02036C14.7519 4.93229 13.9114 5.93382 13.0424 6.25734C12.1735 6.58087 11.605 6.10387 11.7728 5.19193C11.9406 4.28 12.7811 3.27846 13.65 2.95494" stroke="#333333" stroke-width="1.49996" stroke-linecap="round" stroke-linejoin="round"/>
</svg>
