<svg width="24" height="24" viewBox="0 0 24 24" fill="none" xmlns="http://www.w3.org/2000/svg">
<path fill-rule="evenodd" clip-rule="evenodd" d="M17.5009 17.3609C18.5483 17.3609 19.3984 16.5135 19.4017 15.4661V15.4661V15.4661C19.401 14.9331 19.1883 14.4224 18.8104 14.0465L17.5509 12.786V9.04141C17.5506 7.56957 16.9654 6.15819 15.924 5.1181C14.8826 4.07801 13.4704 3.49451 11.9986 3.4961V3.4961C8.93702 3.49776 6.45584 5.97983 6.45529 9.04141V12.783L5.19576 14.0435C4.81764 14.4192 4.60455 14.93 4.60352 15.4631V15.4631V15.4631C4.60682 16.5105 5.45687 17.3579 6.50431 17.3579L17.5009 17.3609Z" stroke="#323232" stroke-width="1.5" stroke-linecap="round" stroke-linejoin="round"/>
<path d="M10.5195 20.5041H13.4778" stroke="#333333" stroke-width="1.5" stroke-linecap="round" stroke-linejoin="round"/>
</svg>
