<svg width="25" height="24" viewBox="0 0 25 24" fill="none" xmlns="http://www.w3.org/2000/svg">
<path d="M3.74609 7.99826H21.7536" stroke="#333333" stroke-width="1.5" stroke-linecap="round" stroke-linejoin="round"/>
<path d="M10.2471 12.0002H7.74609" stroke="#333333" stroke-width="1.5" stroke-linecap="round" stroke-linejoin="round"/>
<path d="M10.749 18.0029H6.74734C5.0898 18.0029 3.74609 16.6592 3.74609 15.0017V6.99832C3.74609 5.34078 5.0898 3.99707 6.74734 3.99707H18.7523C20.4099 3.99707 21.7536 5.34078 21.7536 6.99832V11" stroke="#333333" stroke-width="1.5" stroke-linecap="round" stroke-linejoin="round"/>
<path fill-rule="evenodd" clip-rule="evenodd" d="M14.1777 17.6352C14.1777 19.2358 16.4267 20.4363 17.4601 20.8945C17.7813 21.0396 18.1493 21.0396 18.4705 20.8945C19.504 20.4313 21.7529 19.2418 21.7529 17.6352V15.0601C21.7524 14.5284 21.4188 14.0539 20.9185 13.8736L18.9907 13.1793C18.3273 12.9402 17.6013 12.9402 16.9379 13.1793L15.0121 13.8726C14.5113 14.0528 14.1775 14.5279 14.1777 15.0601V17.6352Z" stroke="#333333" stroke-width="1.5" stroke-linecap="round" stroke-linejoin="round"/>
</svg>
