<svg width="20" height="20" viewBox="0 0 20 20" fill="none" xmlns="http://www.w3.org/2000/svg">
<path d="M18.3333 11.6634H15.4167C15.1865 11.6634 15 11.4769 15 11.2467V8.33008H17.6667" stroke="#333333" stroke-width="1.5" stroke-linecap="round" stroke-linejoin="round"/>
<path d="M15.464 15.3661C15.8215 15.7236 15.9284 16.2612 15.735 16.7283C15.5415 17.1954 15.0858 17.5 14.5802 17.5C14.0746 17.5 13.6188 17.1955 13.4253 16.7284C13.2318 16.2614 13.3387 15.7237 13.6962 15.3662L13.6963 15.3661C14.1844 14.878 14.9758 14.878 15.4639 15.3661V15.3661" stroke="#333333" stroke-width="1.5" stroke-linecap="round" stroke-linejoin="round"/>
<path d="M6.29794 15.3662C6.65545 15.7237 6.76242 16.2613 6.56897 16.7284C6.37552 17.1955 5.91974 17.5001 5.41416 17.5001C4.90859 17.5002 4.45277 17.1956 4.25927 16.7285C4.06577 16.2615 4.17269 15.7238 4.53017 15.3663V15.3663L4.53042 15.366C5.01846 14.878 5.80973 14.878 6.29778 15.366L6.29792 15.3662V15.3662" stroke="#333333" stroke-width="1.5" stroke-linecap="round" stroke-linejoin="round"/>
<path d="M13.401 15.8337H6.5918" stroke="#333333" stroke-width="1.5" stroke-linecap="round" stroke-linejoin="round"/>
<path d="M15.7587 15.8335H17.5C17.9602 15.8335 18.3333 15.4604 18.3333 15.0002V10.3179C18.3333 10.106 18.2929 9.896 18.2142 9.69925L17.0852 6.87767C16.8321 6.24496 16.2193 5.83008 15.5378 5.83008H12.5" stroke="#333333" stroke-width="1.5" stroke-linecap="round" stroke-linejoin="round"/>
<path d="M4.23401 15.8333H2.49935C2.03911 15.8333 1.66602 15.4602 1.66602 15V10" stroke="#333333" stroke-width="1.5" stroke-linecap="round" stroke-linejoin="round"/>
<path d="M1.66602 12.4964H11.666C12.1263 12.4964 12.4993 12.1233 12.4993 11.6631V4.99642C12.4993 4.53618 12.1263 4.16309 11.666 4.16309H9.99935" stroke="#333333" stroke-width="1.5" stroke-linecap="round" stroke-linejoin="round"/>
<path d="M1.66602 4.58301C1.66602 5.94844 3.15602 7.40702 4.00602 8.12831C4.3417 8.40125 4.82283 8.40125 5.15852 8.12831C6.00935 7.40702 7.49935 5.94844 7.49935 4.58301" stroke="#333333" stroke-width="1.5" stroke-linecap="round" stroke-linejoin="round"/>
<path d="M4.58352 4.367C4.70307 4.36746 4.79966 4.46467 4.79935 4.58422C4.79904 4.70377 4.70196 4.80048 4.58241 4.80033C4.46285 4.80018 4.36602 4.70322 4.36602 4.58366C4.36571 4.52596 4.38855 4.47055 4.42943 4.42982C4.47031 4.3891 4.52582 4.36647 4.58352 4.367" stroke="#333333" stroke-width="1.5" stroke-linecap="round" stroke-linejoin="round"/>
<path d="M1.66602 4.58366V4.58366C1.66602 2.97283 2.97185 1.66699 4.58268 1.66699V1.66699C6.19351 1.66699 7.49935 2.97283 7.49935 4.58366V4.58366" stroke="#333333" stroke-width="1.5" stroke-linecap="round" stroke-linejoin="round"/>
</svg>
