<svg width="40" height="41" viewBox="0 0 40 41" fill="none" xmlns="http://www.w3.org/2000/svg">
<rect y="0.5" width="40" height="40" rx="20" fill="#EA4335"/>
<path d="M27.625 20.6875C27.625 25.125 24.5938 28.25 20.125 28.25C15.8125 28.25 12.375 24.8125 12.375 20.5C12.375 16.2188 15.8125 12.75 20.125 12.75C22.1875 12.75 23.9688 13.5312 25.3125 14.7812L23.1875 16.8125C20.4375 14.1562 15.3125 16.1562 15.3125 20.5C15.3125 23.2188 17.4688 25.4062 20.125 25.4062C23.1875 25.4062 24.3438 23.2188 24.5 22.0625H20.125V19.4062H27.5C27.5625 19.8125 27.625 20.1875 27.625 20.6875Z" fill="white"/>
</svg>
