<svg width="24" height="24" viewBox="0 0 24 24" fill="none" xmlns="http://www.w3.org/2000/svg">
<path fill-rule="evenodd" clip-rule="evenodd" d="M12.5091 5.9742L12 6.49112L11.4908 5.97412C10.5625 5.03106 9.29461 4.5 7.97132 4.5C6.64804 4.5 5.38012 5.03106 4.45182 5.97412V5.97412C2.51606 7.96337 2.51606 11.1322 4.45182 13.1215L9.84447 18.5971C10.413 19.1747 11.1896 19.5 12 19.5C12.8105 19.5 13.587 19.1747 14.1556 18.5971L19.5482 13.1216C21.4839 11.1323 21.4839 7.96347 19.5482 5.97421V5.97421C18.6199 5.03112 17.3519 4.50003 16.0286 4.50003C14.7053 4.50003 13.4374 5.03111 12.5091 5.9742Z" stroke="#323232" stroke-width="1.5" stroke-linecap="round" stroke-linejoin="round"/>
</svg>
