<svg width="20" height="20" viewBox="0 0 20 20" fill="none" xmlns="http://www.w3.org/2000/svg">
<path d="M13.8728 6.12743L14.1675 5.83286" stroke="#333333" stroke-width="1.5" stroke-linecap="round" stroke-linejoin="round"/>
<path d="M10.0006 5L10.0007 4.58333" stroke="#333333" stroke-width="1.5" stroke-linecap="round" stroke-linejoin="round"/>
<path d="M6.12837 6.12849L5.83387 5.83375" stroke="#333333" stroke-width="1.5" stroke-linecap="round" stroke-linejoin="round"/>
<path fill-rule="evenodd" clip-rule="evenodd" d="M7.08401 9.99997C7.07765 8.58318 8.0905 7.36679 9.48502 7.11647C10.8795 6.86615 12.2522 7.65434 12.739 8.9849C13.2258 10.3155 12.6858 11.8034 11.459 12.5121V13.9583C11.459 14.5336 10.9926 15 10.4173 15H9.58401C9.00872 15 8.54235 14.5336 8.54235 13.9583V12.5121C7.64232 11.9954 7.08639 11.0378 7.08401 9.99997Z" stroke="#333333" stroke-width="1.5" stroke-linecap="round" stroke-linejoin="round"/>
<path d="M8.54102 12.5124H11.4577" stroke="#333333" stroke-width="1.5" stroke-linecap="round" stroke-linejoin="round"/>
<rect x="17.5" y="17.5" width="15" height="15" rx="5" transform="rotate(180 17.5 17.5)" stroke="#333333" stroke-width="1.5" stroke-linecap="round" stroke-linejoin="round"/>
</svg>
