<svg width="16" height="16" viewBox="0 0 16 16" fill="none" xmlns="http://www.w3.org/2000/svg">
<path fill-rule="evenodd" clip-rule="evenodd" d="M4.99733 2H11.0033C12.658 2 14 3.34133 14 4.99733V11.0033C14 12.658 12.6587 14 11.0027 14H4.99733C3.342 14 2 12.6587 2 11.0027V4.99733C2 3.342 3.34133 2 4.99733 2V2Z" stroke="#212121" stroke-linecap="round" stroke-linejoin="round"/>
<path d="M11.2998 4.47552C11.1758 4.47619 11.0751 4.57685 11.0751 4.70085C11.0751 4.82485 11.1765 4.92552 11.3005 4.92552C11.4245 4.92552 11.5251 4.82485 11.5251 4.70085C11.5258 4.57619 11.4245 4.47552 11.2998 4.47552" stroke="#212121" stroke-linecap="round" stroke-linejoin="round"/>
<path d="M9.69667 6.30255C10.6339 7.23981 10.6339 8.75941 9.69667 9.69667C8.75941 10.6339 7.23981 10.6339 6.30255 9.69667C5.36529 8.75941 5.36529 7.23981 6.30255 6.30255C7.23981 5.36529 8.75941 5.36529 9.69667 6.30255" stroke="#212121" stroke-linecap="round" stroke-linejoin="round"/>
</svg>
