<svg width="25" height="24" viewBox="0 0 25 24" fill="none" xmlns="http://www.w3.org/2000/svg">
<path d="M21.7536 13.0003V17.0019C21.7536 19.212 19.962 21.0036 17.7519 21.0036H7.74776C5.5377 21.0036 3.74609 19.212 3.74609 17.0019V6.99776C3.74609 4.7877 5.5377 2.99609 7.74776 2.99609H11.7494" stroke="#333333" stroke-width="1.5" stroke-linecap="round" stroke-linejoin="round"/>
<path d="M22.7526 6.63775C22.4457 8.52434 20.8475 9.93049 18.9371 9.99461C17.0268 10.0587 15.3379 8.76292 14.9051 6.90116C14.4724 5.0394 15.4167 3.13153 17.1595 2.34656C18.9022 1.56159 20.9568 2.11869 22.0644 3.67652L18.816 6.91187L17.4434 5.5393" stroke="#333333" stroke-width="1.5" stroke-linecap="round" stroke-linejoin="round"/>
<path d="M7.74609 16.0022H17.7503" stroke="#333333" stroke-width="1.5" stroke-linecap="round" stroke-linejoin="round"/>
<path d="M7.74609 12.0002H12.7482" stroke="#333333" stroke-width="1.5" stroke-linecap="round" stroke-linejoin="round"/>
</svg>
