<svg width="25" height="24" viewBox="0 0 25 24" fill="none" xmlns="http://www.w3.org/2000/svg">
<path d="M18.75 14H5.75C4.92157 14 4.25 13.3284 4.25 12.5V5C4.25 3.89543 5.14543 3 6.25 3H9.25" stroke="#333333" stroke-width="1.5" stroke-linecap="round" stroke-linejoin="round"/>
<path fill-rule="evenodd" clip-rule="evenodd" d="M19.2498 21H5.2517C4.62422 21 4.03312 20.7055 3.65525 20.2045C3.27737 19.7036 3.15653 19.0543 3.32889 18.451L4.3932 14.7253C4.51584 14.296 4.90825 14 5.35476 14H19.1468C19.5933 14 19.9856 14.296 20.1083 14.7253L21.1726 18.451C21.345 19.0543 21.2241 19.7036 20.8463 20.2045C20.4684 20.7055 19.8773 21 19.2498 21Z" stroke="#333333" stroke-width="1.5" stroke-linecap="round" stroke-linejoin="round"/>
<path d="M10.25 18H14.25" stroke="#333333" stroke-width="1.5" stroke-linecap="round" stroke-linejoin="round"/>
<path d="M13.25 3H14.508L15.509 8H20.554L21.25 4.5H14.808" stroke="#333333" stroke-width="1.5" stroke-linecap="round" stroke-linejoin="round"/>
<path d="M20.0785 10.415C20.0979 10.4346 20.0978 10.4662 20.0783 10.4856C20.0587 10.5051 20.0271 10.505 20.0076 10.4856C19.9881 10.4661 19.9881 10.4345 20.0075 10.4149C20.027 10.3954 20.0586 10.3953 20.0782 10.4147L20.0785 10.415" stroke="#333333" stroke-width="1.5" stroke-linecap="round" stroke-linejoin="round"/>
<path d="M16.0492 10.415C16.0686 10.4346 16.0685 10.4662 16.049 10.4856C16.0294 10.5051 15.9978 10.505 15.9783 10.4856C15.9588 10.4661 15.9588 10.4345 15.9782 10.4149C15.9977 10.3954 16.0293 10.3953 16.0489 10.4147L16.0492 10.415" stroke="#333333" stroke-width="1.5" stroke-linecap="round" stroke-linejoin="round"/>
<path d="M8.25 7H10.25" stroke="#333333" stroke-width="1.5" stroke-linecap="round" stroke-linejoin="round"/>
<path d="M10.25 10H12.25" stroke="#333333" stroke-width="1.5" stroke-linecap="round" stroke-linejoin="round"/>
</svg>
