<svg width="24" height="25" viewBox="0 0 24 25" fill="none" xmlns="http://www.w3.org/2000/svg">
<path fill-rule="evenodd" clip-rule="evenodd" d="M7.5 3.47363H16.504C18.987 3.47363 21 5.48663 21 7.96963V16.9786C21 19.4606 18.987 21.4736 16.504 21.4736H7.496C5.013 21.4736 3 19.4606 3 16.9776V7.97363C3 5.48863 5.015 3.47363 7.5 3.47363V3.47363Z" stroke="black" stroke-width="1.5" stroke-linecap="round" stroke-linejoin="round"/>
<path d="M8.11914 11.5732V16.9732" stroke="black" stroke-width="1.5" stroke-linecap="round" stroke-linejoin="round"/>
<path d="M11.7188 16.9742V13.8242C11.7188 12.5812 12.7257 11.5742 13.9688 11.5742V11.5742C15.2118 11.5742 16.2188 12.5812 16.2188 13.8242V16.9742" stroke="black" stroke-width="1.5" stroke-linecap="round" stroke-linejoin="round"/>
<path d="M8.11814 8.31211C7.99414 8.31211 7.89314 8.41311 7.89414 8.53711C7.89414 8.66111 7.99514 8.76211 8.11914 8.76211C8.24314 8.76211 8.34414 8.66111 8.34414 8.53711C8.34414 8.41211 8.24314 8.31211 8.11814 8.31211" stroke="black" stroke-width="1.5" stroke-linecap="round" stroke-linejoin="round"/>
</svg>
