<svg width="25" height="24" viewBox="0 0 25 24" fill="none" xmlns="http://www.w3.org/2000/svg">
<path d="M14.25 20H5.375C4.201 20 3.25 19.049 3.25 17.875V7.855C3.25 7.568 3.308 7.283 3.421 7.02L4.588 4.29C4.922 3.508 5.691 3 6.542 3H16.959C17.81 3 18.578 3.508 18.913 4.29L20.08 7.02C20.192 7.284 20.25 7.568 20.25 7.855V12" stroke="#333333" stroke-width="1.5" stroke-linecap="round" stroke-linejoin="round"/>
<path d="M11.75 3V7.44" stroke="#333333" stroke-width="1.5" stroke-linecap="round" stroke-linejoin="round"/>
<path d="M20.207 7.44043H3.29297" stroke="#333333" stroke-width="1.5" stroke-linecap="round" stroke-linejoin="round"/>
<path d="M6.25 16H8.25" stroke="#333333" stroke-width="1.5" stroke-linecap="round" stroke-linejoin="round"/>
<path d="M17.25 21C14.489 21 12.25 18.761 12.25 16C12.25 13.239 14.489 11 17.25 11C20.012 11 22.25 13.239 22.25 16C22.25 18.761 20.012 21 17.25 21" stroke="#333333" stroke-width="1.5" stroke-linecap="round" stroke-linejoin="round"/>
<path d="M19.1947 15.0283L16.7637 17.4593L15.3047 16.0003" stroke="#333333" stroke-width="1.5" stroke-linecap="round" stroke-linejoin="round"/>
</svg>
