<svg width="24" height="25" viewBox="0 0 24 25" fill="none" xmlns="http://www.w3.org/2000/svg">
<path fill-rule="evenodd" clip-rule="evenodd" d="M7.5 3.47363H16.504C18.987 3.47363 21 5.48663 21 7.96963V16.9786C21 19.4606 18.987 21.4736 16.504 21.4736H7.496C5.013 21.4736 3 19.4606 3 16.9776V7.97363C3 5.48863 5.015 3.47363 7.5 3.47363V3.47363Z" stroke="black" stroke-width="1.5" stroke-linecap="round" stroke-linejoin="round"/>
<path d="M17.8 11.0234C17.8 10.6092 17.4642 10.2734 17.05 10.2734C16.6358 10.2734 16.3 10.6092 16.3 11.0234H17.8ZM6.85559 15.381C6.61124 15.0465 6.14201 14.9735 5.80755 15.2178C5.47309 15.4622 5.40005 15.9314 5.64441 16.2659L6.85559 15.381ZM6.13303 15.0826C5.72388 15.1472 5.44458 15.5313 5.50918 15.9404C5.57378 16.3496 5.95783 16.6289 6.36697 16.5643L6.13303 15.0826ZM8.05 15.2234L8.28837 15.9345C8.53392 15.8522 8.71963 15.6491 8.77961 15.3971C8.83959 15.1452 8.76534 14.8801 8.58322 14.696L8.05 15.2234ZM7.45 8.02344L8.11062 7.66835C7.98802 7.44027 7.75645 7.29157 7.49805 7.27498C7.23965 7.25839 6.99096 7.37626 6.84021 7.58679L7.45 8.02344ZM11.05 11.0234L10.8727 11.7522C11.0921 11.8056 11.3239 11.7572 11.5037 11.6207C11.6835 11.4841 11.7922 11.2738 11.7996 11.0481L11.05 11.0234ZM16.45 9.22344L15.824 9.63653C15.9628 9.84687 16.198 9.97344 16.45 9.97344V9.22344ZM18.25 9.22344L18.874 9.63946C19.0275 9.40932 19.0418 9.11341 18.9113 8.86954C18.7807 8.62568 18.5266 8.47344 18.25 8.47344V9.22344ZM16.426 10.6074C16.1962 10.9521 16.2893 11.4177 16.634 11.6475C16.9786 11.8772 17.4443 11.7841 17.674 11.4395L16.426 10.6074ZM16.3 11.0234C16.3 12.9854 15.7401 14.5944 14.7626 15.7022C13.7954 16.7984 12.3593 17.4734 10.45 17.4734V18.9734C12.7407 18.9734 14.6046 18.1485 15.8874 16.6947C17.1599 15.2525 17.8 13.2615 17.8 11.0234H16.3ZM10.45 17.4734C9.39463 17.4734 8.7077 17.2024 8.19749 16.8414C7.66436 16.4641 7.27821 15.9594 6.85559 15.381L5.64441 16.2659C6.05979 16.8344 6.57364 17.5298 7.33101 18.0658C8.1113 18.618 9.10537 18.9734 10.45 18.9734V17.4734ZM6.36697 16.5643C6.39335 16.5601 6.41373 16.5554 6.42051 16.5538C6.42992 16.5516 6.43748 16.5497 6.44194 16.5485C6.45085 16.5461 6.45799 16.5441 6.46146 16.5431C6.46891 16.5409 6.47537 16.5389 6.47894 16.5378C6.48681 16.5354 6.49542 16.5326 6.50327 16.5301C6.51958 16.5248 6.54143 16.5177 6.56708 16.5093C6.61878 16.4923 6.69084 16.4684 6.77585 16.4401C6.9461 16.3835 7.17099 16.3085 7.39489 16.2336C7.61889 16.1588 7.84225 16.084 8.00959 16.0279C8.09327 15.9999 8.16295 15.9766 8.21172 15.9602C8.2361 15.9521 8.25526 15.9456 8.26832 15.9413C8.27485 15.9391 8.27986 15.9374 8.28324 15.9363C8.28493 15.9357 8.28621 15.9353 8.28707 15.935C8.2875 15.9348 8.28782 15.9347 8.28804 15.9347C8.28815 15.9346 8.28823 15.9346 8.28828 15.9346C8.28831 15.9346 8.28833 15.9346 8.28835 15.9346C8.28836 15.9346 8.28837 15.9345 8.05 15.2234C7.81163 14.5123 7.81163 14.5123 7.81161 14.5123C7.8116 14.5123 7.81158 14.5123 7.81155 14.5124C7.8115 14.5124 7.81142 14.5124 7.81131 14.5124C7.8111 14.5125 7.81078 14.5126 7.81035 14.5128C7.8095 14.513 7.80822 14.5135 7.80654 14.514C7.80318 14.5152 7.79818 14.5168 7.79167 14.519C7.77863 14.5234 7.75951 14.5298 7.73515 14.538C7.68645 14.5543 7.61684 14.5776 7.53325 14.6056C7.36606 14.6616 7.14299 14.7362 6.91936 14.811C6.69564 14.8858 6.47171 14.9605 6.30268 15.0167C6.21805 15.0448 6.14785 15.0681 6.09852 15.0843C6.07365 15.0925 6.05529 15.0985 6.04342 15.1023C6.03718 15.1043 6.03471 15.1051 6.03473 15.1051C6.0349 15.105 6.03561 15.1048 6.03673 15.1045C6.03774 15.1042 6.03992 15.1035 6.04287 15.1027C6.0452 15.102 6.05141 15.1002 6.0596 15.098C6.06369 15.097 6.07094 15.0951 6.0801 15.0929C6.08662 15.0914 6.10679 15.0868 6.13303 15.0826L6.36697 16.5643ZM8.58322 14.696C6.84139 12.9351 6.71219 10.342 8.05979 8.46008L6.84021 7.58679C5.07581 10.0508 5.25061 13.4598 7.51678 15.7509L8.58322 14.696ZM6.78938 8.37852C7.60057 9.88768 9.1313 11.3286 10.8727 11.7522L11.2273 10.2947C10.0007 9.99631 8.77543 8.9052 8.11062 7.66835L6.78938 8.37852ZM11.7996 11.0481C11.8227 10.3458 12.0694 9.78168 12.4448 9.39815C12.8161 9.01869 13.3541 8.77344 14.05 8.77344V7.27344C12.9789 7.27344 12.0454 7.66169 11.3727 8.34898C10.7041 9.0322 10.3343 9.96809 10.3004 10.9988L11.7996 11.0481ZM14.05 8.77344C14.5545 8.77344 14.9057 8.86905 15.1646 9.0072C15.4218 9.14453 15.6339 9.34843 15.824 9.63653L17.076 8.81034C16.7771 8.35744 16.3907 7.96135 15.8709 7.68392C15.3528 7.40733 14.7485 7.27344 14.05 7.27344V8.77344ZM16.45 9.97344H18.25V8.47344H16.45V9.97344ZM17.626 8.80741L16.426 10.6074L17.674 11.4395L18.874 9.63946L17.626 8.80741Z" fill="black"/>
</svg>
